#define mandxface_width 48
#define mandxface_height 48
static unsigned char mandxface_bits[] = {
   0x00, 0x00, 0x00, 0x00, 0xca, 0xee, 0x00, 0x00, 0x00, 0x00, 0x26, 0x4e,
   0x00, 0x00, 0x00, 0x00, 0x2a, 0x46, 0x00, 0x00, 0x00, 0x00, 0xca, 0x4a,
   0x00, 0x00, 0x00, 0x00, 0x00, 0x00, 0x00, 0x00, 0x00, 0x00, 0x00, 0x00,
   0x00, 0x00, 0x00, 0x00, 0x00, 0x00, 0x00, 0x00, 0x00, 0x00, 0x00, 0x00,
   0x00, 0x00, 0x00, 0x00, 0x00, 0x00, 0x03, 0x00, 0x00, 0x00, 0x00, 0x00,
   0x0c, 0x00, 0x00, 0x00, 0x00, 0x00, 0x30, 0x00, 0x00, 0x03, 0x00, 0x00,
   0xc0, 0x80, 0x3f, 0x05, 0x00, 0x00, 0x00, 0x41, 0x40, 0x09, 0x18, 0x00,
   0x00, 0x22, 0x00, 0x11, 0x27, 0x00, 0x00, 0x12, 0x00, 0xf1, 0x10, 0x1e,
   0x00, 0x12, 0x00, 0x3d, 0x08, 0x22, 0x80, 0x0a, 0xe0, 0x43, 0x04, 0x41,
   0x80, 0x0a, 0x18, 0x81, 0x04, 0x41, 0x43, 0x09, 0x08, 0x81, 0x82, 0x40,
   0x1e, 0x19, 0x30, 0x01, 0x81, 0x40, 0xf0, 0x7f, 0xc0, 0x81, 0x82, 0x40,
   0x00, 0x80, 0x0f, 0x47, 0x84, 0x28, 0x49, 0x92, 0x30, 0x39, 0x88, 0x28,
   0x00, 0x00, 0x5c, 0x61, 0x90, 0x24, 0x24, 0x49, 0x2a, 0x91, 0x63, 0x20,
   0x00, 0x00, 0x56, 0x09, 0xac, 0xff, 0x92, 0x24, 0x2b, 0x06, 0x30, 0x49,
   0x00, 0x00, 0x56, 0x00, 0x00, 0x00, 0x49, 0x92, 0xfc, 0x48, 0x92, 0x24,
   0x00, 0x00, 0x56, 0x03, 0x00, 0x00, 0x24, 0x49, 0xaa, 0x26, 0x49, 0x92,
   0x03, 0x00, 0x56, 0x03, 0x00, 0x00, 0x9c, 0x24, 0xab, 0x92, 0x24, 0x49,
   0xe3, 0x00, 0x56, 0x03, 0x00, 0x00, 0x1c, 0x97, 0xaa, 0x4a, 0x92, 0xa4,
   0xe0, 0x38, 0x54, 0x07, 0x00, 0x80, 0x04, 0xc7, 0xf9, 0x39, 0x49, 0xd2,
   0x00, 0x38, 0x0e, 0xc4, 0x01, 0xc0, 0x92, 0xc4, 0x71, 0x92, 0x0e, 0xc9,
   0x00, 0x00, 0x8e, 0x03, 0x70, 0x80, 0x49, 0x92, 0x74, 0x5c, 0x92, 0xa3,
   0x00, 0x00, 0x80, 0x23, 0x00, 0x1c, 0x24, 0x49, 0x92, 0x3c, 0x49, 0xe2,
   0x00, 0x00, 0x00, 0xc0, 0x03, 0x00, 0x92, 0x24, 0x49, 0x92, 0x3c, 0x49,
   0x00, 0x00, 0x00, 0x00, 0xc0, 0x03, 0x49, 0x92, 0x24, 0x49, 0x92, 0x3c };

